# xmcd CD database file
#
# Track frame offsets:
#	150
#	14218
#	26107
#	38157
#	52797
#	64725
#	75675
#	87840
#	102127
#	111929
#	125703
#	136383
#	149154
#	160007
#	171972
#	183978
#	195050
#	206700
#
# Disc length: 2942 seconds
#
# Revision: 0
# Processed by: cddbd v1.5.1PL2 Copyright (c) Steve Scherf et al.
# Submitted via: CDex 1.51
#
DISCID=fc0b7c12
DTITLE=Tennessee Ernie Ford - Mule Train
DYEAR=1900
DGENRE=Country
TTITLE0=Tennesee Ernie Ford - Mule Train
TTITLE1=Tennesee Ernie Ford - The Shot-Gun Boogie
TTITLE2=Tennesee Ernie Ford - Smokey Mountain Boogie
TTITLE3=Tennesee Ernie Ford - The Cry Of The Wild Goose
TTITLE4=Tennesee Ernie Ford - I'll Never Be Free
TTITLE5=Tennesee Ernie Ford - Country Junction
TTITLE6=Tennesee Ernie Ford - Ain't Nobody's Business
TTITLE7=Tennesee Ernie Ford - Mister And Mississipi
TTITLE8=Tennesee Ernie Ford - Anticipation Blues
TTITLE9=Tennesee Ernie Ford - The Strange Little Girl
TTITLE10=Tennesee Ernie Ford - Taylor Made Woman
TTITLE11=Tennesee Ernie Ford - Stack -O- Lee
TTITLE12=Tennesee Ernie Ford - I Ain't Gonna Let It Happen No
TTITLE13=Tennesee Ernie Ford - You're My Sugar
TTITLE14=Tennesee Ernie Ford - Blues Stay Away From Me
TTITLE15=Tennesee Ernie Ford - Feed 'Em In The Morning Blues
TTITLE16=Tennesee Ernie Ford - My Hobby
TTITLE17=Tennesee Ernie Ford - Bright Lights And Blonde
EXTD=
EXTT0=
EXTT1=
EXTT2=
EXTT3=
EXTT4=
EXTT5=
EXTT6=
EXTT7=
EXTT8=
EXTT9=
EXTT10=
EXTT11=
EXTT12=
EXTT13=
EXTT14=
EXTT15=
EXTT16=
EXTT17=
PLAYORDER=
